<svg width="24" height="25" viewBox="0 0 24 25" fill="none" xmlns="http://www.w3.org/2000/svg">
<path d="M16.2662 6.72156L17.8698 5.87633L19.4709 6.72156L19.1633 4.93523L20.4619 3.67369L18.6691 3.40874L17.8698 1.78886L17.068 3.40874L15.2751 3.67369L16.5738 4.93523L16.2662 6.72156Z" fill="black"/>
<path d="M20.1118 9.40127L19.8041 11.1825L21.4079 10.3423L23.0115 11.1825L22.7039 9.40127L24 8.13458L22.2097 7.87469L21.4079 6.24985L20.606 7.87469L18.8184 8.13458L20.1118 9.40127Z" fill="black"/>
<path d="M11.9975 8.38518C9.25148 8.38518 7.01489 10.6232 7.01489 13.371C7.01489 16.1212 9.25144 18.3591 11.9975 18.3591C14.7483 18.3591 16.9824 16.1212 16.9824 13.371C16.9824 10.6232 14.7483 8.38518 11.9975 8.38518Z" fill="black"/>
<path d="M0.990979 11.1825L2.58965 10.3423L4.19324 11.1825L3.88569 9.40127L5.18178 8.13458L3.39153 7.87469L2.58965 6.24985L1.79024 7.87469L0 8.13458L1.29604 9.40127L0.990979 11.1825Z" fill="black"/>
<path d="M19.6074 13.371C19.6074 17.5719 16.1933 20.9857 11.9976 20.9857C7.80418 20.9857 4.3901 17.5719 4.3901 13.371V13.0404H0.380859V13.371C0.380859 19.7822 5.59033 25 11.9976 25C18.4047 25 23.6167 19.7822 23.6167 13.371V13.0404H19.6074V13.371Z" fill="black"/>
<path d="M10.3964 4.93275L11.9977 4.08751L13.6014 4.93275L13.2937 3.14884L14.5898 1.88722L12.7995 1.6224L11.9977 0L11.1983 1.6224L9.41309 1.88722L10.7041 3.14884L10.3964 4.93275Z" fill="black"/>
<path d="M4.53644 6.72156L6.1375 5.87633L7.74122 6.72156L7.43616 4.93523L8.72715 3.67369L6.93939 3.40874L6.1375 1.78886L5.34071 3.40874L3.54785 3.67369L4.84408 4.93523L4.53644 6.72156Z" fill="black"/>
</svg>
